<svg xmlns="http://www.w3.org/2000/svg" viewBox="0 0 512 512">
  <defs>
    <linearGradient id="paper" x1="74" y1="42" x2="430" y2="474" gradientUnits="userSpaceOnUse">
      <stop stop-color="#fffdf7"/>
      <stop offset="0.52" stop-color="#ede8dc"/>
      <stop offset="1" stop-color="#d8c8a8"/>
    </linearGradient>
    <linearGradient id="scan" x1="118" y1="64" x2="388" y2="450" gradientUnits="userSpaceOnUse">
      <stop stop-color="#6fd5c7"/>
      <stop offset="0.48" stop-color="#e7f05f"/>
      <stop offset="1" stop-color="#c5533d"/>
    </linearGradient>
    <filter id="softShadow" x="-20%" y="-20%" width="140%" height="140%">
      <feDropShadow dx="0" dy="18" stdDeviation="18" flood-color="#1c1711" flood-opacity="0.28"/>
    </filter>
  </defs>

  <rect width="512" height="512" rx="84" fill="#27241f"/>
  <path d="M60 80h392v352H60z" fill="url(#paper)"/>
  <path d="M60 80h392v352H60z" fill="none" stroke="#d6a247" stroke-width="10"/>
  <path d="M88 110h336M88 148h336M88 186h336M88 224h336M88 262h336M88 300h336M88 338h336M88 376h336" stroke="#504534" stroke-opacity="0.14" stroke-width="5"/>

  <circle cx="256" cy="256" r="150" fill="#27241f" filter="url(#softShadow)"/>
  <circle cx="256" cy="256" r="128" fill="none" stroke="#fffdf7" stroke-opacity="0.9" stroke-width="12"/>
  <circle cx="256" cy="256" r="102" fill="none" stroke="#d6a247" stroke-opacity="0.8" stroke-width="7" stroke-dasharray="28 12"/>

  <path d="M173 172h166v48h-58v153h-50V220h-58z" fill="#fffdf7"/>
  <path d="M231 173h50v196h-50z" fill="#6fd5c7" opacity="0.92"/>
  <path d="M280 171c62 0 103 37 103 86 0 50-41 88-103 88h-34v-48h34c29 0 50-16 50-40 0-23-21-38-50-38h-34v-48z" fill="#fffdf7"/>
  <path d="M280 187c50 0 82 29 82 70s-32 72-82 72h-14v-32h14c29 0 50-16 50-40 0-23-21-38-50-38h-14v-32z" fill="#27241f"/>

  <path d="M119 387 392 112" stroke="url(#scan)" stroke-width="22" stroke-linecap="round" opacity="0.88"/>
  <path d="M162 346 257 256l95 90" stroke="#c5533d" stroke-width="18" stroke-linecap="round" stroke-linejoin="round" opacity="0.92"/>
  <path d="M162 166 257 256l95-90" stroke="#6fd5c7" stroke-width="18" stroke-linecap="round" stroke-linejoin="round" opacity="0.88"/>
  <circle cx="256" cy="256" r="20" fill="#e7f05f" stroke="#27241f" stroke-width="10"/>

  <path d="M76 96h360M76 416h360" stroke="#fffdf7" stroke-opacity="0.38" stroke-width="6"/>
  <path d="M100 80v352M412 80v352" stroke="#27241f" stroke-opacity="0.12" stroke-width="5"/>
</svg>
